<?xml version="1.0" encoding="UTF-8" standalone="no"?>
<svg
   sodipodi:docname="favicon.svg"
   inkscape:version="1.3.2 (091e20e, 2023-11-25, custom)"
   inkscape:export-ydpi="69.923378"
   inkscape:export-xdpi="69.923378"
   inkscape:export-filename="G:\5P3C7R3\js\bitmap.png"
   id="svg42"
   version="1.1"
   viewBox="0 0 273.27741 273.2774"
   height="273.2774mm"
   width="273.2774mm"
   xmlns:inkscape="http://www.inkscape.org/namespaces/inkscape"
   xmlns:sodipodi="http://sodipodi.sourceforge.net/DTD/sodipodi-0.dtd"
   xmlns="http://www.w3.org/2000/svg"
   xmlns:svg="http://www.w3.org/2000/svg"
   xmlns:rdf="http://www.w3.org/1999/02/22-rdf-syntax-ns#"
   xmlns:cc="http://creativecommons.org/ns#"
   xmlns:dc="http://purl.org/dc/elements/1.1/">
  <defs
     id="defs36">
    <linearGradient
       id="linearGradient1037"
       inkscape:swatch="solid">
      <stop
         id="stop1035"
         offset="0"
         style="stop-color:#000000;stop-opacity:1;" />
    </linearGradient>
    <linearGradient
       id="linearGradient1031"
       inkscape:swatch="solid">
      <stop
         id="stop1029"
         offset="0"
         style="stop-color:#000000;stop-opacity:1;" />
    </linearGradient>
    <linearGradient
       id="linearGradient1001"
       inkscape:swatch="solid">
      <stop
         id="stop999"
         offset="0"
         style="stop-color:#000000;stop-opacity:1;" />
    </linearGradient>
  </defs>
  <sodipodi:namedview
     inkscape:window-maximized="1"
     inkscape:window-y="-8"
     inkscape:window-x="-8"
     inkscape:window-height="745"
     inkscape:window-width="1366"
     showgrid="false"
     inkscape:document-rotation="0"
     inkscape:current-layer="layer1"
     inkscape:document-units="mm"
     inkscape:cy="607.85714"
     inkscape:cx="522.85714"
     inkscape:zoom="0.7"
     inkscape:pageshadow="2"
     inkscape:pageopacity="0.0"
     borderopacity="1.0"
     bordercolor="#666666"
     pagecolor="#ffffff"
     id="base"
     inkscape:showpageshadow="0"
     inkscape:pagecheckerboard="0"
     inkscape:deskcolor="#505050" />
  <metadata
     id="metadata39">
    <rdf:RDF>
      <cc:Work
         rdf:about="">
        <dc:format>image/svg+xml</dc:format>
        <dc:type
           rdf:resource="http://purl.org/dc/dcmitype/StillImage" />
      </cc:Work>
    </rdf:RDF>
  </metadata>
  <g
     transform="translate(44.41251,-8.8821216)"
     id="layer1"
     inkscape:groupmode="layer"
     inkscape:label="Capa 1">
    <circle
       r="133.90871"
       cy="145.52083"
       cx="92.226196"
       id="path152"
       style="fill:none;stroke:#000000;stroke-width:5.46;stroke-miterlimit:4;stroke-dasharray:none;stroke-opacity:1" />
    <g
       transform="matrix(0.03616933,0,0,-0.03616933,-39.85124,234.19438)"
       fill="#000000"
       stroke="none"
       id="g12">
      <path
         d="m 2570,3909 c -258,-87 -362,-126 -379,-144 l -25,-24 55,-23 c 485,-197 884,-617 1144,-1204 142,-321 274,-818 302,-1138 l 7,-81 12,105 c 61,538 256,1114 509,1510 235,369 575,662 934,808 l 54,22 -22,24 c -34,36 -749,275 -762,255 -15,-24 -10,-34 33,-65 23,-16 56,-43 75,-61 72,-68 38,-139 -170,-363 -167,-179 -232,-261 -345,-430 -101,-151 -214,-361 -277,-515 -21,-49 -38,-91 -39,-92 -1,-2 -17,34 -35,80 -60,147 -184,379 -283,527 -113,169 -178,251 -345,430 -149,160 -203,237 -203,290 0,42 26,82 68,105 56,31 85,61 77,84 -3,11 -12,21 -18,20 -7,0 -172,-54 -367,-120 z"
         id="path2" />
      <path
         d="m 1830,3659 c -450,-153 -578,-204 -558,-224 4,-4 46,2 95,13 302,69 476,52 713,-69 112,-57 278,-179 390,-287 l 80,-77 -60,-370 c -33,-203 -63,-383 -66,-400 l -7,-30 -16,25 c -9,14 -55,78 -104,142 -227,303 -467,517 -737,657 -153,79 -245,112 -425,151 -158,34 -215,52 -215,69 0,6 19,23 43,37 87,54 92,57 79,62 -11,3 -726,-308 -720,-314 2,-1 43,8 92,22 472,126 957,-46 1407,-497 248,-249 469,-569 643,-931 l 71,-147 23,17 c 20,15 29,53 76,292 30,151 80,415 111,585 31,171 58,311 60,313 7,8 162,-254 220,-373 216,-442 330,-904 366,-1490 11,-184 6,-515 -10,-683 -6,-63 -4,-75 11,-89 18,-16 20,-15 47,13 16,16 56,95 94,184 l 65,155 7,150 c 17,368 -38,889 -136,1285 -210,852 -636,1457 -1228,1742 -88,42 -264,109 -284,107 -7,0 -64,-18 -127,-40 z"
         id="path4" />
      <path
         d="M 5284,3665 C 4594,3412 4111,2787 3881,1850 3783,1454 3728,933 3745,565 l 7,-150 65,-155 c 38,-89 78,-168 94,-184 27,-28 29,-29 47,-13 15,14 17,26 11,89 -16,168 -21,499 -10,683 36,586 150,1048 366,1490 58,119 213,381 220,373 2,-2 29,-142 60,-313 31,-170 81,-434 111,-585 47,-239 56,-277 76,-292 l 23,-17 71,147 c 174,362 395,682 643,931 450,451 935,623 1407,497 49,-14 90,-23 92,-22 6,6 -709,317 -720,314 -13,-5 -8,-8 80,-62 23,-14 42,-31 42,-37 0,-17 -57,-35 -215,-69 -180,-39 -272,-72 -425,-151 -270,-140 -510,-354 -737,-657 -49,-64 -95,-128 -104,-142 l -16,-25 -7,30 c -3,17 -33,197 -66,400 l -60,370 80,77 c 112,108 278,230 390,287 237,121 411,138 713,69 94,-22 117,-18 77,12 -32,24 -643,241 -675,239 -5,0 -51,-15 -101,-34 z"
         id="path6" />
      <path
         d="m 535,3064 c -131,-18 -191,-29 -260,-51 -82,-26 -238,-93 -232,-100 2,-2 35,4 73,14 97,24 375,24 499,0 534,-104 992,-461 1375,-1072 133,-212 314,-594 380,-797 15,-49 44,-70 75,-56 19,8 27,29 49,132 l 27,121 -36,90 c -57,141 -185,397 -272,542 -378,626 -874,1052 -1343,1151 -93,20 -275,34 -335,26 z"
         id="path8" />
      <path
         d="m 6600,3059 c -443,-48 -909,-380 -1301,-926 -158,-220 -336,-544 -434,-788 l -36,-90 27,-121 c 22,-103 30,-124 49,-132 31,-14 60,7 75,56 66,203 247,585 380,797 383,611 841,968 1375,1072 104,20 402,24 473,6 33,-9 42,-8 42,2 0,16 -132,69 -236,95 -78,20 -240,41 -301,39 -21,-1 -72,-5 -113,-10 z"
         id="path10" />
    </g>
  </g>
</svg>
